# xmcd
# 
# Track frame offsets:
#     150
#     13694
#     32135
#     49438
#     71154
#     103422
#     126567
#     143967
#     161974
#     182461
#     198892
#     223896
#     246566
# 
# Disc length: 3494
# 
# Revision: 2
# Processed by: cddbd v1.5.2PL0 Copyright (c) Steve Scherf et al.
# Submitted via: fre:ac v1.0.27
# 
DISCID=d70da40d
DTITLE=Joanne Shaw Taylor - Wild
DYEAR=2016
DGENRE=Blues
TTITLE0=Dyin' To Know
TTITLE1=Ready To Roll
TTITLE2=Get You Back
TTITLE3=No Reason To Stay
TTITLE4=Wild Is The Wind
TTITLE5=Wanna Be My Lover
TTITLE6=I'm In Chains
TTITLE7=I Wish I Could Wish You Back
TTITLE8=My Heart's Got A Mind Of It's Own
TTITLE9=Nothin' To Lose
TTITLE10=Summertime
TTITLE11=Sleeping On A Bed Of Nails
TTITLE12=Your Own Little Hell
EXTD=YEAR: 2016
EXTT0=
EXTT1=
EXTT2=
EXTT3=
EXTT4=
EXTT5=
EXTT6=
EXTT7=
EXTT8=
EXTT9=
EXTT10=
EXTT11=
EXTT12=
PLAYORDER=
